<svg xmlns="http://www.w3.org/2000/svg" version="1.1" xmlns:xlink="http://www.w3.org/1999/xlink" xmlns:svgjs="http://svgjs.com/svgjs" width="512" height="512" x="0" y="0" viewBox="0 0 25 25" style="enable-background:new 0 0 512 512" xml:space="preserve" class=""><g><path d="M13.5.5v5c3.1.4 5.5 2.9 5.9 5.9h5C24 5.6 19.4 1 13.5.5zM18.1 16.7l3.6 3.6c1.6-1.9 2.6-4.2 2.8-6.8h-5c-.2 1.2-.7 2.3-1.4 3.2z" fill="#ffffff" data-original="#000000" class=""></path><path d="M12.5 24.5c2.9 0 5.6-1 7.8-2.8l-3.6-3.6c-1.3.9-2.7 1.4-4.2 1.4-3.9 0-7-3.2-7-7 0-3.6 2.7-6.5 6-6.9v-5c-6.2.5-11 5.7-11 12 0 6.5 5.4 11.9 12 11.9z" fill="#ffffff" data-original="#000000" class=""></path></g></svg>