<svg enable-background="new 0 0 512 512" height="512" viewBox="0 0 512 512" width="512" xmlns="http://www.w3.org/2000/svg" xmlns:xlink="http://www.w3.org/1999/xlink"><linearGradient id="SVGID_1_" gradientUnits="userSpaceOnUse" x1="256" x2="256" y1="484.507" y2="27.493"><stop offset="0" stop-color="#c9def7"/><stop offset="1" stop-color="#0c76f0"/></linearGradient><g id="_x32_5_Download_Arrow"><path d="m503.671 405.696c0 43.453-35.358 78.811-78.811 78.811h-337.721c-43.453 0-78.811-35.358-78.811-78.811s35.358-78.811 78.811-78.811c4.278 0 7.74 3.462 7.74 7.74s-3.462 7.74-7.74 7.74c-34.919 0-63.331 28.412-63.331 63.331s28.412 63.331 63.331 63.331h337.721c34.919 0 63.331-28.412 63.331-63.331s-28.412-63.331-63.331-63.331c-4.278 0-7.74-3.462-7.74-7.74s3.462-7.74 7.74-7.74c43.453.001 78.811 35.359 78.811 78.811zm-198.806-329.376v119.595h35.411c19.153 0 36.091 10.778 44.216 28.125 8.118 17.346 5.548 37.263-6.727 51.979l-84.23 100.964c-9.304 11.149-22.962 17.55-37.489 17.55s-28.185-6.402-37.489-17.55l-84.307-101.048c-12.275-14.708-14.852-34.625-6.727-51.979 8.118-17.346 25.063-28.125 44.216-28.125h35.486v-119.511c0-26.923 21.896-48.827 48.819-48.827s48.821 21.904 48.821 48.827zm-7.74 135.075c-4.278 0-7.74-3.462-7.74-7.74v-127.335c0-18.389-14.958-33.347-33.34-33.347s-33.34 14.958-33.34 33.347v127.252c0 4.278-3.462 7.74-7.74 7.74h-43.225c-13.28 0-24.572 7.18-30.203 19.206-5.631 12.033-3.908 25.305 4.595 35.501l84.306 101.047c6.357 7.619 15.691 11.988 25.608 11.988s19.251-4.369 25.608-11.988l84.23-100.964c8.503-10.196 10.219-23.469 4.588-35.501-5.631-12.025-16.923-19.206-30.196-19.206z" fill="url(#SVGID_1_)"/></g></svg>