<svg xmlns="http://www.w3.org/2000/svg" version="1.1" xmlns:xlink="http://www.w3.org/1999/xlink" xmlns:svgjs="http://svgjs.com/svgjs" width="512" height="512" x="0" y="0" viewBox="0 0 128 128" style="enable-background:new 0 0 512 512" xml:space="preserve"><g><path d="M120.285 57.519c-1.825-2.686-4.628-4.164-7.891-4.164h-6.872V43.08c0-5.276-4.292-9.568-9.568-9.568H53.596l-4.283-9.575c-1.535-3.5-4.876-5.675-8.72-5.675H15.705c-5.276 0-9.568 4.292-9.568 9.568 0 9.097-.028 18.194-.057 27.292l4 .012c.028-9.102.057-18.203.057-27.304a5.575 5.575 0 0 1 5.568-5.568h24.888c2.266 0 4.155 1.227 5.063 3.295l5.348 11.955h44.95a5.575 5.575 0 0 1 5.568 5.568v10.274H33.081c-4.021 0-7.536 2.433-8.956 6.195L9.997 96.808c.005-11.557.031-23.237.083-34.783l-4-.018a8523.445 8523.445 0 0 0-.085 38.163c0 1.525.38 3.008 1.074 4.356l-.034.092.571.856a9.545 9.545 0 0 0 7.957 4.264h82.715c4.015 0 7.53-2.419 8.957-6.166l14.118-37.252c1.151-3.057.765-6.192-1.068-8.801zm-2.674 7.388-14.115 37.244c-.843 2.213-2.842 3.587-5.218 3.587H15.563a5.548 5.548 0 0 1-4.021-1.723l16.324-43.051c.841-2.227 2.839-3.61 5.215-3.61h79.313c1.925 0 3.51.834 4.6 2.438 1.083 1.542 1.296 3.312.617 5.115z" fill="#bdbdbd" data-original="#000000"></path></g></svg>