<svg xmlns="http://www.w3.org/2000/svg" version="1.1" xmlns:xlink="http://www.w3.org/1999/xlink" xmlns:svgjs="http://svgjs.com/svgjs" width="512" height="512" x="0" y="0" viewBox="0 0 32 32" style="enable-background:new 0 0 512 512" xml:space="preserve" class=""><g><g data-name="Layer 2"><path d="M15.97 31.302A15.301 15.301 0 0 1 .794 17.682a1.302 1.302 0 0 1 1.148-1.435c.05-.005.096-.007.141-.007a1.283 1.283 0 0 1 1.295 1.156 12.706 12.706 0 0 0 12.594 11.306 12.903 12.903 0 0 0 1.425-.08 12.7 12.7 0 0 0 6.543-22.535 12.528 12.528 0 0 0-7.908-2.79 12.82 12.82 0 0 0-1.426.08A12.615 12.615 0 0 0 4.46 10.692a1.307 1.307 0 0 1-1.182.756 1.3 1.3 0 0 1-1.18-1.844A15.194 15.194 0 0 1 14.319.792a15.709 15.709 0 0 1 1.71-.094 15.301 15.301 0 0 1 15.179 13.62 15.319 15.319 0 0 1-13.524 16.89 15.726 15.726 0 0 1-1.712.094z" fill="#ffffff" data-original="#000000" class=""></path><path d="M3.27 11.45a1.298 1.298 0 0 1-1.286-1.114l-.77-5.306a1.298 1.298 0 0 1 1.1-1.473 1.335 1.335 0 0 1 .184-.014 1.293 1.293 0 0 1 1.288 1.113l.564 3.875 3.475-.893a1.3 1.3 0 0 1 .648 2.519l-4.88 1.252a1.309 1.309 0 0 1-.322.04zM20.999 21.3a1.308 1.308 0 0 1-.812-.285l-5-4A1.293 1.293 0 0 1 14.7 16V8a1.3 1.3 0 0 1 2.6 0v7.375l4.512 3.61A1.3 1.3 0 0 1 21 21.3z" fill="#ffffff" data-original="#000000" class=""></path></g></g></svg>