<svg xmlns="http://www.w3.org/2000/svg" version="1.1" xmlns:xlink="http://www.w3.org/1999/xlink" xmlns:svgjs="http://svgjs.com/svgjs" width="512" height="512" x="0" y="0" viewBox="0 0 512 512" style="enable-background:new 0 0 512 512" xml:space="preserve"><g><linearGradient id="a" x1="256" x2="256" y2="512" gradientUnits="userSpaceOnUse"><stop offset="0" stop-color="#84aff9"></stop><stop offset="1" stop-color="#2c5ede"></stop></linearGradient><g data-name="Layer 2"><circle cx="256" cy="256" r="256" fill="url(#a)" data-original="url(#a)"></circle><path fill="#ffffff" d="M331.44 153q-32.58-30-75.44-30t-75.44 30Q148 183.1 148 233.73q0 33.75 26.83 73.42 24.72 36.56 72.82 78.71a12.66 12.66 0 0 0 16.7 0q48.09-42.15 72.82-78.71Q364 267.49 364 233.73q0-50.64-32.56-80.73zM256 241.18a28.58 28.58 0 1 1 28.57-28.58A28.58 28.58 0 0 1 256 241.18z" data-name="location_pin" data-original="#ffffff"></path></g></g></svg>