<svg xmlns="http://www.w3.org/2000/svg" version="1.1" xmlns:xlink="http://www.w3.org/1999/xlink" xmlns:svgjs="http://svgjs.com/svgjs" width="512" height="512" x="0" y="0" viewBox="0 0 200 200" style="enable-background:new 0 0 512 512" xml:space="preserve" class=""><g><linearGradient id="a" x1="29.29" x2="170.71" y1="29.29" y2="170.71" gradientUnits="userSpaceOnUse"><stop stop-opacity="1" stop-color="#82adf8" offset="0"></stop><stop stop-opacity="1" stop-color="#3667e1" offset="1"></stop></linearGradient><path fill="url(#a)" d="M93.22 98.7 65.43 69.63a7.72 7.72 0 0 1 1.18-.1h66.78a7.72 7.72 0 0 1 1.18.1l-27.8 29.07a9.36 9.36 0 0 1-13.55 0zm19.34 5.53a17.37 17.37 0 0 1-25.12 0L59.35 74.85a7.51 7.51 0 0 0-.35 2.29v45.72a7.62 7.62 0 0 0 7.61 7.61h66.78a7.62 7.62 0 0 0 7.61-7.61V77.14a7.51 7.51 0 0 0-.35-2.29zM200 100A100 100 0 1 1 100 0a100 100 0 0 1 100 100zm-51-22.86a15.62 15.62 0 0 0-15.61-15.61H66.61A15.62 15.62 0 0 0 51 77.14v45.72a15.62 15.62 0 0 0 15.61 15.61h66.78A15.62 15.62 0 0 0 149 122.86z" data-original="url(#a)" class=""></path></g></svg>