<svg xmlns="http://www.w3.org/2000/svg" version="1.1" xmlns:xlink="http://www.w3.org/1999/xlink" xmlns:svgjs="http://svgjs.com/svgjs" width="512" height="512" x="0" y="0" viewBox="0 0 32 32" style="enable-background:new 0 0 512 512" xml:space="preserve" class=""><g><path d="M1.945 7.906h28.11C31.128 7.906 32 7.034 32 5.96s-.872-1.945-1.945-1.945H1.945C.873 4.016 0 4.888 0 5.96s.873 1.945 1.945 1.945zM30.055 14.055H1.945C.873 14.055 0 14.927 0 16s.873 1.945 1.945 1.945h28.11C31.128 17.945 32 17.073 32 16s-.872-1.945-1.945-1.945zM30.055 24.094H1.945C.873 24.094 0 24.967 0 26.04s.873 1.944 1.945 1.944h28.11c1.073 0 1.945-.872 1.945-1.944s-.872-1.946-1.945-1.946z" fill="#272727" data-original="#000000" class=""></path></g></svg>