<svg xmlns="http://www.w3.org/2000/svg" version="1.1" xmlns:xlink="http://www.w3.org/1999/xlink" xmlns:svgjs="http://svgjs.com/svgjs" width="512" height="512" x="0" y="0" viewBox="0 0 32 32" style="enable-background:new 0 0 512 512" xml:space="preserve" class=""><g><path d="m25.523 23.083-1.559-2.562a2.98 2.98 0 0 0-1.854-1.356 2.984 2.984 0 0 0-2.269.352l-1.287.784a.984.984 0 0 1-1.205-.124 17.516 17.516 0 0 1-4.44-7.299c-.128-.414.06-.885.446-1.121l1.287-.783a3.002 3.002 0 0 0 1.002-4.122L14.085 4.29a2.98 2.98 0 0 0-1.854-1.356 2.976 2.976 0 0 0-2.269.353L7.479 4.798a2.966 2.966 0 0 0-1.442 2.55c0 3.104.612 7.805 3.516 12.576 1.31 2.153 4.287 6.17 9.506 8.876.453.235.941.352 1.424.352a2.98 2.98 0 0 0 1.552-.436l2.484-1.512a2.978 2.978 0 0 0 1.355-1.853 2.981 2.981 0 0 0-.353-2.269z" fill="#ffffff" data-original="#000000"></path></g></svg>