<svg xmlns="http://www.w3.org/2000/svg" version="1.1" xmlns:xlink="http://www.w3.org/1999/xlink" xmlns:svgjs="http://svgjs.com/svgjs" width="512" height="512" x="0" y="0" viewBox="0 0 512 512" style="enable-background:new 0 0 512 512" xml:space="preserve" class=""><g><linearGradient id="a" x1="6.302" x2="505.814" y1="262.256" y2="249.91" gradientUnits="userSpaceOnUse"><stop stop-opacity="1" stop-color="#80abf7" offset="0"></stop><stop stop-opacity="1" stop-color="#396ae2" offset="1"></stop></linearGradient><g fill-rule="evenodd"><path fill="url(#a)" d="M256.085.083c141.383 0 256 114.587 256 256.035 0 141.377-114.617 255.964-256 255.964S.084 397.5.084 256.118C.084 114.67 114.7.083 256.085.083z" data-original="url(#a)"></path><path fill="#ffffff" d="m125.009 149.879 32.808-32.807a3.474 3.474 0 0 1 4.845 0l58.939 58.94a3.471 3.471 0 0 1 0 4.845l-31.336 31.335a18.006 18.006 0 0 0-1.947 23.232c22.325 31.391 57.033 66.1 88.423 88.423a18.006 18.006 0 0 0 23.231-1.946l31.337-31.335a3.471 3.471 0 0 1 4.845 0l58.94 58.934a3.472 3.472 0 0 1 0 4.848l-32.807 32.812a29.163 29.163 0 0 1-26.678 8.406c-41.569-7.344-92.721-38.063-136.833-82.175s-74.831-95.267-82.176-136.833a29.153 29.153 0 0 1 8.407-26.679zm2.566 105.887c14.951 24.574 34.682 49.39 57.06 71.767s47.192 42.109 71.765 57.059c26.565 16.167 52.044 26.484 75.729 30.668a53 53 0 0 0 9.267.826A48.845 48.845 0 0 0 376.43 401.3l32.806-32.809a23.452 23.452 0 0 0 0-33.131L350.3 276.422a23.455 23.455 0 0 0-33.129 0L287 306.592c-28.5-20.552-60.869-52.925-81.423-81.423L235.744 195a23.455 23.455 0 0 0 0-33.13L176.8 102.931a23.45 23.45 0 0 0-33.129 0l-32.808 32.806a49.028 49.028 0 0 0-13.96 44.3c4.188 23.686 14.506 49.163 30.672 75.729z" data-original="#ffffff" class=""></path></g></g></svg>