<svg xmlns="http://www.w3.org/2000/svg" version="1.1" xmlns:xlink="http://www.w3.org/1999/xlink" xmlns:svgjs="http://svgjs.com/svgjs" width="512" height="512" x="0" y="0" viewBox="0 0 24 24" style="enable-background:new 0 0 512 512" xml:space="preserve"><g><g fill="#000" fill-rule="evenodd" clip-rule="evenodd"><path d="M2.25 12c0-5.385 4.365-9.75 9.75-9.75s9.75 4.365 9.75 9.75v7a.75.75 0 0 1-1.5 0v-7a8.25 8.25 0 0 0-16.5 0v7a.75.75 0 0 1-1.5 0z" fill="#ffffff" data-original="#000000"></path><path d="M15.25 15A2.75 2.75 0 0 1 18 12.25h1A2.75 2.75 0 0 1 21.75 15v4A2.75 2.75 0 0 1 19 21.75h-1A2.75 2.75 0 0 1 15.25 19zM18 13.75c-.69 0-1.25.56-1.25 1.25v4c0 .69.56 1.25 1.25 1.25h1c.69 0 1.25-.56 1.25-1.25v-4c0-.69-.56-1.25-1.25-1.25zM8.75 15A2.75 2.75 0 0 0 6 12.25H5A2.75 2.75 0 0 0 2.25 15v4A2.75 2.75 0 0 0 5 21.75h1A2.75 2.75 0 0 0 8.75 19zM6 13.75c.69 0 1.25.56 1.25 1.25v4c0 .69-.56 1.25-1.25 1.25H5c-.69 0-1.25-.56-1.25-1.25v-4c0-.69.56-1.25 1.25-1.25z" fill="#ffffff" data-original="#000000"></path></g></g></svg>