<svg xmlns="http://www.w3.org/2000/svg" version="1.1" xmlns:xlink="http://www.w3.org/1999/xlink" xmlns:svgjs="http://svgjs.com/svgjs" width="512" height="512" x="0" y="0" viewBox="0 0 356.484 356.484" style="enable-background:new 0 0 512 512" xml:space="preserve" class=""><g transform="matrix(-1,0,0,1,356.4840087890625,0)"><path d="M293.984 7.23H62.5C28.037 7.23 0 35.268 0 69.731v142.78c0 34.463 28.037 62.5 62.5 62.5l147.443.001 70.581 70.58a12.492 12.492 0 0 0 13.622 2.709 12.496 12.496 0 0 0 7.717-11.547v-62.237c30.759-3.885 54.621-30.211 54.621-62.006V69.731c0-34.463-28.037-62.501-62.5-62.501zm37.5 205.282c0 20.678-16.822 37.5-37.5 37.5h-4.621c-6.903 0-12.5 5.598-12.5 12.5v44.064l-52.903-52.903a12.493 12.493 0 0 0-8.839-3.661H62.5c-20.678 0-37.5-16.822-37.5-37.5V69.732c0-20.678 16.822-37.5 37.5-37.5h231.484c20.678 0 37.5 16.822 37.5 37.5v142.78z" fill="#ffffff" data-original="#000000" class=""></path><path d="M270.242 95.743h-184c-6.903 0-12.5 5.596-12.5 12.5 0 6.903 5.597 12.5 12.5 12.5h184c6.903 0 12.5-5.597 12.5-12.5 0-6.904-5.596-12.5-12.5-12.5zM270.242 165.743h-184c-6.903 0-12.5 5.596-12.5 12.5s5.597 12.5 12.5 12.5h184c6.903 0 12.5-5.597 12.5-12.5s-5.596-12.5-12.5-12.5z" fill="#ffffff" data-original="#000000" class=""></path></g></svg>