<svg xmlns="http://www.w3.org/2000/svg" version="1.1" xmlns:xlink="http://www.w3.org/1999/xlink" xmlns:svgjs="http://svgjs.com/svgjs" width="512" height="512" x="0" y="0" viewBox="0 0 24 24" style="enable-background:new 0 0 512 512" xml:space="preserve"><g><path d="M19 3H5C3.3 3 2 4.3 2 6v15c0 .4.2.7.5.9.2.1.3.1.5.1s.4 0 .5-.1L8 19.1c.2-.1.4-.1.6-.1H19c1.7 0 3-1.3 3-3V6c0-1.7-1.3-3-3-3zM8 12c-.6 0-1-.4-1-1s.4-1 1-1 1 .4 1 1-.4 1-1 1zm4 0c-.6 0-1-.4-1-1s.4-1 1-1 1 .4 1 1-.4 1-1 1zm4 0c-.6 0-1-.4-1-1s.4-1 1-1 1 .4 1 1-.4 1-1 1z" fill="#ffffff" data-original="#000000"></path></g></svg>