<svg xmlns="http://www.w3.org/2000/svg" version="1.1" xmlns:xlink="http://www.w3.org/1999/xlink" xmlns:svgjs="http://svgjs.com/svgjs" width="512" height="512" x="0" y="0" viewBox="0 0 512 512" style="enable-background:new 0 0 512 512" xml:space="preserve" class=""><g><path d="m142.716 293.147-94-107.602 94-107.602c7.596-8.705 6.71-21.924-1.995-29.527-8.705-7.596-21.917-6.703-29.527 1.995L5.169 171.782c-6.892 7.882-6.892 19.65 0 27.532l106.026 121.372a20.913 20.913 0 0 0 15.771 7.157 20.84 20.84 0 0 0 13.755-5.169c8.706-7.603 9.598-20.822 1.995-29.527z" fill="#ffffff" data-original="#000000" class=""></path><path d="M359.93 164.619H20.926C9.368 164.619 0 173.986 0 185.545c0 11.558 9.368 20.926 20.926 20.926H359.93c60.776 0 110.218 49.441 110.218 110.211S420.706 426.893 359.93 426.893H48.828c-11.558 0-20.926 9.368-20.926 20.926 0 11.558 9.368 20.926 20.926 20.926H359.93c83.844 0 152.07-68.219 152.07-152.063s-68.219-152.063-152.07-152.063z" fill="#ffffff" data-original="#000000" class=""></path></g></svg>