<svg xmlns="http://www.w3.org/2000/svg" version="1.1" xmlns:xlink="http://www.w3.org/1999/xlink" xmlns:svgjs="http://svgjs.com/svgjs" width="512" height="512" x="0" y="0" viewBox="0 0 512 512" style="enable-background:new 0 0 512 512" xml:space="preserve"><g><path d="M187.628 0H43.707C19.607 0 0 19.607 0 43.707v143.921c0 24.1 19.607 43.707 43.707 43.707h143.921c24.1 0 43.707-19.607 43.707-43.707V43.707c0-24.1-19.607-43.707-43.707-43.707zM468.293 0H324.372c-24.1 0-43.707 19.607-43.707 43.707v143.921c0 24.1 19.607 43.707 43.707 43.707h143.921c24.1 0 43.707-19.607 43.707-43.707V43.707C512 19.607 492.393 0 468.293 0zM187.628 280.665H43.707C19.607 280.665 0 300.272 0 324.372v143.921C0 492.393 19.607 512 43.707 512h143.921c24.1 0 43.707-19.607 43.707-43.707V324.372c0-24.1-19.607-43.707-43.707-43.707zM468.293 280.665H324.372c-24.1 0-43.707 19.607-43.707 43.707v143.921c0 24.1 19.607 43.707 43.707 43.707h143.921c24.1 0 43.707-19.607 43.707-43.707V324.372c0-24.1-19.607-43.707-43.707-43.707z" fill="#ffffff" data-original="#000000"></path></g></svg>