<svg xmlns="http://www.w3.org/2000/svg" version="1.1" xmlns:xlink="http://www.w3.org/1999/xlink" xmlns:svgjs="http://svgjs.com/svgjs" width="512" height="512" x="0" y="0" viewBox="0 0 24 24" style="enable-background:new 0 0 512 512" xml:space="preserve" class=""><g><path d="M23.69 17a73.18 73.18 0 0 0-2.79-6.44A74.076 74.076 0 0 0 16 2.12a4.834 4.834 0 0 0-8 0 74.076 74.076 0 0 0-4.9 8.44c-1.03 2.1-1.97 4.26-2.79 6.43A4.75 4.75 0 0 0 0 18.7a4.875 4.875 0 0 0 4.27 4.82A62.542 62.542 0 0 0 12 24a63.523 63.523 0 0 0 7.79-.49A4.839 4.839 0 0 0 24 18.7a4.658 4.658 0 0 0-.31-1.7zM11 18v-1a1 1 0 0 1 2 0v1a1 1 0 0 1-2 0zm2-10v6a1 1 0 0 1-2 0V8a1 1 0 0 1 2 0z" fill="#ffffff" data-original="#000000" class=""></path></g></svg>